<?xml version="1.0" encoding="utf-8"?>
<!-- Generator: Adobe Illustrator 27.0.0, SVG Export Plug-In . SVG Version: 6.00 Build 0)  -->
<svg version="1.1" id="Layer_1" xmlns="http://www.w3.org/2000/svg" xmlns:xlink="http://www.w3.org/1999/xlink" x="0px" y="0px"
	 viewBox="0 0 1920 1080" style="enable-background:new 0 0 1920 1080;" xml:space="preserve">
<style type="text/css">
	.st0{fill:#231F20;}
</style>
<g id="logo_00000026870675550106816050000009305392406202366081_">
	<g>
		<g>
			<polygon class="st0" points="611.28,561.07 593.67,561.07 593.67,541.22 605.15,541.22 610.35,547.63 610.35,531.1 
				605.15,537.57 593.67,537.57 593.67,519.13 609.23,519.13 616.12,528.85 616.12,519.13 616.19,519.13 616.19,515.48 
				579.61,515.48 584.68,519.69 584.68,560.51 579.61,564.73 618.16,564.73 618.16,551.36 			"/>
		</g>
		<g>
			<polygon class="st0" points="551.71,520.05 538.76,551.85 524.83,519.69 529.9,515.48 509.22,515.48 514.42,519.56 
				536.23,566.98 536.65,566.98 556.49,519.69 561.84,515.48 543.97,515.48 			"/>
		</g>
		<g>
			<path class="st0" d="M458.76,560.16l5.55-12.96h16.25l5.63,13.31l-5.07,4.21h20.4l-5-3.93l-21.25-47.77h-0.42l-22.72,51.71h14.28
				l-7.67-4.5V560.16z M472.47,528.08l6.54,15.48h-13.15L472.47,528.08z"/>
		</g>
		<g>
			<path class="st0" d="M387.37,564.73h19.13l-5.07-4.21v-41.38h6.55c6.34,0,10.35,3.31,10.35,9.29c0,5.14-2.89,9.78-13.31,10.63
				c11.26,18.92,15.69,27.43,31.45,26.03v-0.35c-8.45-4.36-14.14-13.37-20.33-24.27c6.96-2.11,11.67-6.54,11.67-12.95
				c0-8.31-8.01-12.03-18.78-12.03h-21.67l5.07,4.22v40.82L387.37,564.73z"/>
		</g>
		<g>
			<path class="st0" d="M364.46,552.04l-0.35-0.35c-5.56,5.28-11.68,7.04-16.75,7.04c-10.69,0-17.73-8.02-17.73-20.34
				c0-12.95,7.74-19.91,18.29-19.91c1.83,0,3.87,0.21,5.98,0.77l9.08,12.81v-17.09l-3.94,1.76c-3.8-1.26-7.88-1.9-11.47-1.9
				c-14.29,0-27.36,9.49-27.36,25.75c0,15.34,11.95,24.9,24.54,24.9C352.08,565.47,360.18,562.3,364.46,552.04z"/>
		</g>
	</g>
	<g>
		<path class="st0" d="M716.74,515.48l6.19-1.41v14.77l-6.89-9.71h-10.91v41.37l5.07,4.22h-19.07l4.99-4.15v-41.44h-10.83
			l-6.89,9.71v-9.71h-0.07v-5.07l6.19,1.41H716.74z"/>
		<path class="st0" d="M794.95,519.7v40.8l5.07,4.22h-19.14l5.07-4.22V540.6h-26.31v19.91l5.07,4.22h-19.14l5.07-4.22v-40.8
			l-5.07-4.22h19.14l-5.07,4.22v17.24h26.31V519.7l-5.07-4.22h19.14L794.95,519.7z"/>
		<path class="st0" d="M856.33,561.07l6.89-9.71v13.37h-38.55l5.07-4.22v-40.8l-5.07-4.22h36.58v3.66h-0.07v9.71l-6.9-9.71h-15.55
			v18.43h11.47l5.21-6.47v16.53l-5.21-6.4h-11.47v19.84H856.33z"/>
		<path class="st0" d="M984.16,515.48l6.19-1.41v14.77l-6.9-9.71h-10.9v41.37l5.06,4.22h-19.07l5-4.15v-41.44h-10.84l-6.89,9.71
			v-9.71h-0.07v-5.07l6.19,1.41H984.16z"/>
		<path class="st0" d="M1041.76,540.46c3.71,6.52,7.06,11.7,10.06,15.55c3,3.85,6.42,6.75,10.27,8.72v0.35
			c-1.88,0.19-3.62,0.21-5.24,0.07c-1.62-0.14-3.1-0.41-4.43-0.81c-1.34-0.4-2.62-0.95-3.84-1.65c-1.22-0.7-2.36-1.55-3.41-2.53
			c-1.06-0.99-2.11-2.13-3.17-3.45c-1.06-1.31-2.11-2.75-3.17-4.33c-1.06-1.57-2.17-3.31-3.34-5.21c-1.17-1.9-2.39-3.93-3.66-6.09
			c-0.52-0.89-0.92-1.57-1.2-2.04c8.86-0.7,13.3-4.24,13.3-10.62c0-2.95-0.92-5.24-2.78-6.86c-1.85-1.62-4.37-2.43-7.56-2.43h-6.54
			v41.37l5.07,4.22h-19.14l5.06-4.22v-40.8l-5.06-4.22h21.67c5.67,0,10.22,1.01,13.65,3.03c3.42,2.02,5.13,5.02,5.13,9
			c0,3.1-1.04,5.76-3.13,7.98C1048.22,537.73,1045.37,539.38,1041.76,540.46z"/>
		<path class="st0" d="M1113.91,561.07l6.89-9.71v13.37h-38.55l5.06-4.22v-40.8l-5.06-4.22h36.58v3.66h-0.07v9.71l-6.89-9.71h-15.55
			v18.43h11.47l5.21-6.47v16.53l-5.21-6.4h-11.47v19.84H1113.91z"/>
		<g>
			<path class="st0" d="M892.25,560.18l5.56-12.96h16.26l5.63,13.31l-5.07,4.22h20.41l-5-3.93l-21.26-47.79h-0.42l-22.73,51.73
				h14.29l-7.67-4.5V560.18z M905.97,528.08l6.54,15.49h-13.16L905.97,528.08z"/>
		</g>
	</g>
	<g>
		<path class="st0" d="M1238.82,560.51l5.07,4.22h-19.14l5.06-4.22v-32.99l-18.29,28l-18.65-27.09v31.73l7.74,4.57h-17.45l5.06-4.22
			v-40.8l-5.06-4.22h11.12l19.7,28.63l18.5-28.63h11.33l-5,4.15V560.51z"/>
		<path class="st0" d="M1289.35,514.78c6.8,0,12.66,2.25,17.59,6.75c4.92,4.5,7.39,10.62,7.39,18.36c0,7.79-2.49,13.99-7.46,18.61
			c-4.97,4.62-10.93,6.93-17.87,6.93c-3.24,0-6.33-0.56-9.28-1.69c-2.96-1.13-5.61-2.72-7.95-4.78c-2.34-2.06-4.21-4.71-5.59-7.95
			c-1.38-3.24-2.08-6.8-2.08-10.69c0-7.78,2.47-13.99,7.42-18.61C1276.47,517.09,1282.41,514.78,1289.35,514.78z M1290.41,561.78
			c4.45,0,7.94-1.79,10.45-5.38c2.51-3.59,3.76-8.52,3.76-14.81c0-7.22-1.57-12.88-4.71-16.99c-3.14-4.1-7.13-6.16-11.96-6.16
			c-4.46,0-7.93,1.79-10.41,5.38c-2.49,3.59-3.73,8.52-3.73,14.81c0,7.22,1.56,12.89,4.68,16.99
			C1281.6,559.72,1285.58,561.78,1290.41,561.78z"/>
		<path class="st0" d="M1346.22,526.32c0,1.64,0.62,3.11,1.86,4.4c1.24,1.29,2.8,2.31,4.68,3.06c1.88,0.75,3.89,1.64,6.05,2.67
			c2.16,1.03,4.17,2.1,6.05,3.2c1.87,1.1,3.44,2.66,4.68,4.68c1.24,2.02,1.87,4.36,1.87,7.03c0,4.55-1.63,8.03-4.89,10.45
			c-3.26,2.42-7.4,3.62-12.42,3.62c-3.85,0-7.72-0.77-11.61-2.32l-4.57,2.25v-16.04l7.67,10.41c2.53,1.31,5.16,1.97,7.88,1.97
			c3.42,0,5.86-0.8,7.31-2.39c1.45-1.59,2.18-3.47,2.18-5.63c0-1.69-0.46-3.2-1.37-4.54s-2.1-2.44-3.55-3.31
			c-1.45-0.87-3.06-1.69-4.82-2.46s-3.53-1.58-5.31-2.43c-1.78-0.84-3.4-1.79-4.85-2.85c-1.45-1.06-2.64-2.42-3.55-4.08
			c-0.92-1.66-1.37-3.58-1.37-5.73c0-4.13,1.55-7.41,4.64-9.85c3.1-2.44,7.18-3.66,12.24-3.66c3.43,0,6.71,0.63,9.85,1.9l4.01-1.9
			v15.9l-8.37-11.4c-1.55-0.56-3.17-0.85-4.85-0.85c-3.33,0-5.73,0.83-7.21,2.5C1346.96,522.6,1346.22,524.39,1346.22,526.32z"/>
		<path class="st0" d="M1438.23,551.64l0.35,0.35c-1.36,3.24-3.17,5.9-5.42,7.98c-2.25,2.09-4.54,3.52-6.86,4.29
			c-2.32,0.77-4.8,1.16-7.42,1.16c-6.61,0-12.36-2.31-17.23-6.93c-4.88-4.62-7.32-10.61-7.32-17.97c0-7.78,2.68-14.02,8.05-18.71
			c5.37-4.69,11.81-7.03,19.31-7.03c3.85,0,7.67,0.63,11.47,1.9l3.94-1.76v17.1l-9.07-12.8c-1.92-0.51-3.92-0.77-5.98-0.77
			c-5.44,0-9.85,1.75-13.23,5.24c-3.38,3.5-5.06,8.38-5.06,14.67c0,6.15,1.62,11.07,4.85,14.77c3.24,3.71,7.53,5.56,12.87,5.56
			C1427.72,558.68,1433.31,556.33,1438.23,551.64z"/>
		<path class="st0" d="M1484.92,514.78c6.8,0,12.66,2.25,17.59,6.75c4.92,4.5,7.39,10.62,7.39,18.36c0,7.79-2.49,13.99-7.46,18.61
			c-4.97,4.62-10.93,6.93-17.87,6.93c-3.24,0-6.33-0.56-9.29-1.69c-2.96-1.13-5.61-2.72-7.95-4.78c-2.35-2.06-4.21-4.71-5.59-7.95
			c-1.38-3.24-2.08-6.8-2.08-10.69c0-7.78,2.47-13.99,7.42-18.61C1472.03,517.09,1477.97,514.78,1484.92,514.78z M1485.97,561.78
			c4.46,0,7.94-1.79,10.45-5.38c2.51-3.59,3.76-8.52,3.76-14.81c0-7.22-1.57-12.88-4.71-16.99c-3.14-4.1-7.13-6.16-11.96-6.16
			c-4.46,0-7.93,1.79-10.41,5.38c-2.49,3.59-3.73,8.52-3.73,14.81c0,7.22,1.56,12.89,4.68,16.99
			C1477.16,559.72,1481.14,561.78,1485.97,561.78z"/>
		<path class="st0" d="M1599.97,515.48l-5.35,4.22l-15.62,47.28h-0.42l-15.76-37.78l-14.42,37.78h-0.42l-18.29-47.77l-4.71-3.73
			h20.05l-5.07,4.22l10.91,30.04l9.64-26.1l-3.38-8.16H1570l-1.41,4.22l11.89,30.04l9.36-29.69l-7.74-4.57H1599.97z"/>
	</g>
</g>
</svg>
